<svg width="38" height="38" viewBox="0 0 38 38" fill="none" xmlns="http://www.w3.org/2000/svg">
<path d="M2.23064 4.41668C2.23064 3.26608 3.16338 2.33334 4.31397 2.33334H33.4806C34.6312 2.33334 35.564 3.26608 35.564 4.41668V8.58334C35.564 9.73394 34.6312 10.6667 33.4806 10.6667H4.31397C3.16338 10.6667 2.23064 9.73394 2.23064 8.58334V4.41668Z" stroke="#A0A0A1" stroke-width="3" stroke-linecap="round" stroke-linejoin="round"/>
<path d="M2.23064 21.0833C2.23064 19.9327 3.16338 19 4.31397 19H16.814C17.9646 19 18.8973 19.9327 18.8973 21.0833V33.5833C18.8973 34.7339 17.9646 35.6667 16.814 35.6667H4.31397C3.16338 35.6667 2.23064 34.7339 2.23064 33.5833V21.0833Z" stroke="#A0A0A1" stroke-width="3" stroke-linecap="round" stroke-linejoin="round"/>
<path d="M27.2306 21.0833C27.2306 19.9327 28.1634 19 29.314 19H33.4806C34.6312 19 35.564 19.9327 35.564 21.0833V33.5833C35.564 34.7339 34.6312 35.6667 33.4806 35.6667H29.314C28.1634 35.6667 27.2306 34.7339 27.2306 33.5833V21.0833Z" stroke="#A0A0A1" stroke-width="3" stroke-linecap="round" stroke-linejoin="round"/>
</svg>
