<svg width="42" height="42" viewBox="0 0 42 42" fill="none" xmlns="http://www.w3.org/2000/svg">
<path d="M35.3779 18.9167H6.21128M35.3779 18.9167C37.6791 18.9167 39.5446 20.7821 39.5446 23.0833V35.5833C39.5446 37.8845 37.6791 39.75 35.3779 39.75H6.21128C3.9101 39.75 2.04462 37.8845 2.04462 35.5833V23.0833C2.04462 20.7821 3.9101 18.9167 6.21128 18.9167M35.3779 18.9167V14.75C35.3779 12.4488 33.5125 10.5833 31.2113 10.5833M6.21128 18.9167V14.75C6.21128 12.4488 8.07676 10.5833 10.3779 10.5833M10.3779 10.5833V6.41667C10.3779 4.11548 12.2434 2.25 14.5446 2.25H27.0446C29.3458 2.25 31.2113 4.11548 31.2113 6.41667V10.5833M10.3779 10.5833H31.2113" stroke="#A0A0A1" stroke-width="3" stroke-linecap="round" stroke-linejoin="round"/>
</svg>
