<svg width="24" height="24" viewBox="0 0 24 24" fill="none" xmlns="http://www.w3.org/2000/svg">
<path d="M23.7014 1.69637V21.3742C23.7014 21.8241 23.5227 22.2556 23.2045 22.5737C22.8864 22.8919 22.4549 23.0706 22.005 23.0706H2.32717C1.87726 23.0706 1.44578 22.8919 1.12765 22.5737C0.809522 22.2556 0.630798 21.8241 0.630798 21.3742L0.630798 1.69637C0.630798 1.24646 0.809522 0.814985 1.12765 0.496855C1.44578 0.178724 1.87726 0 2.32717 0L22.005 0C22.4549 0 22.8864 0.178724 23.2045 0.496855C23.5227 0.814985 23.7014 1.24646 23.7014 1.69637ZM7.41627 8.82111H4.02353V19.6779H7.41627V8.82111ZM7.72161 5.0891C7.7234 4.83247 7.67462 4.578 7.57806 4.34022C7.4815 4.10244 7.33905 3.886 7.15885 3.70327C6.97864 3.52055 6.76421 3.37511 6.52779 3.27525C6.29137 3.1754 6.0376 3.12309 5.78097 3.12132H5.7199C5.19801 3.12132 4.6975 3.32864 4.32847 3.69767C3.95943 4.0667 3.75211 4.56721 3.75211 5.0891C3.75211 5.61099 3.95943 6.11151 4.32847 6.48054C4.6975 6.84957 5.19801 7.05689 5.7199 7.05689C5.97655 7.0632 6.23193 7.01888 6.47145 6.92647C6.71096 6.83405 6.92992 6.69534 7.11582 6.51827C7.30171 6.3412 7.45089 6.12924 7.55483 5.8945C7.65878 5.65975 7.71545 5.40683 7.72161 5.15017V5.0891ZM20.3087 13.0824C20.3087 9.81857 18.2323 8.54969 16.1695 8.54969C15.4941 8.51587 14.8217 8.65973 14.2192 8.9669C13.6168 9.27408 13.1054 9.73385 12.7361 10.3003H12.6411V8.82111H9.45191V19.6779H12.8446V13.9034C12.7956 13.312 12.9819 12.7252 13.363 12.2703C13.7442 11.8155 14.2894 11.5294 14.8803 11.4742H15.0092C16.0881 11.4742 16.8888 12.1528 16.8888 13.8627V19.6779H20.2815L20.3087 13.0824Z" fill="white"/>
</svg>
